<svg
    width="79.965195mm"
    height="104.11736mm"
    viewBox="0 0 79.965195 104.11736"
    version="1.1"
    xml:space="preserve"
    xmlns="http://www.w3.org/2000/svg"
  >
    <defs id="defs1" />
    <g id="layer2" transform="translate(-63.873556,-84.029317)">
      <path
        style="display:inline;stroke:#000000;stroke-width:0.6;stroke-dasharray:none;stroke-opacity:1"
        d="m 72.383474,187.389 c -3.779296,-1.01559 -6.802875,-4.07864 -7.797865,-7.89967 -0.360023,-1.38259 -0.410633,-5.47012 -0.410633,-33.16523 0,-35.00359 -0.112064,-32.78506 1.713043,-33.91304 0.811404,-0.50147 1.305444,-0.53333 8.269619,-0.53333 h 7.406661 l 0.14482,-4.43178 c 0.159161,-4.87066 0.646953,-7.34774 2.028219,-10.299595 3.715747,-7.9408 11.372351,-12.81704 20.125142,-12.81704 6.90843,0 12.93038,2.85932 17.15282,8.14445 1.81835,2.27597 2.78764,4.06376 3.78118,6.97407 0.80836,2.367895 0.86465,2.781485 1.00745,7.402805 l 0.15126,4.89479 7.73444,0.1323 7.73444,0.13229 0.81657,0.81703 c 0.44911,0.44937 0.9246,1.28281 1.05664,1.85209 0.33374,1.43887 0.31596,61.1146 -0.0189,63.43071 -0.65933,4.56035 -3.86198,8.13222 -8.33661,9.29772 -2.29222,0.59705 -60.331519,0.57982 -62.558296,-0.0186 z m 61.860736,-7.59704 c 0.54496,-0.29737 1.07227,-0.90254 1.38325,-1.5875 0.48376,-1.06551 0.50278,-2.18865 0.50837,-30.01267 l 0.006,-28.90573 h -5.15938 -5.15937 v 7.67292 7.67291 h -3.70417 -3.70417 v -7.67291 -7.67292 H 103.86248 89.310392 v 7.67292 7.67291 h -3.836459 -3.836458 v -7.67291 -7.67292 h -5.027083 -5.027083 l 0.0058,28.90573 c 0.0056,27.78955 0.02515,28.94833 0.506673,30.00887 0.493938,1.08788 1.054634,1.54811 2.382481,1.9556 0.3723,0.11425 13.773784,0.18715 29.781077,0.162 27.57431,-0.0433 29.15046,-0.071 29.98486,-0.5263 z m -15.82965,-71.95969 c 0,-5.52453 -0.91021,-8.325255 -3.69635,-11.373735 -2.8816,-3.15294 -6.37624,-4.72615 -10.59115,-4.7679 -4.252331,-0.0421 -7.686331,1.34661 -10.587217,4.28154 -3.245563,3.28366 -4.229451,6.042645 -4.229451,11.860095 v 3.78087 h 14.552088 14.55208 z"
        id="path1"
      />
    </g>
  </svg>