<svg
    viewBox="0 0 48.926884 66.913116"
    version="1.1"
    xml:space="preserve"
    xmlns:inkscape="http://www.inkscape.org/namespaces/inkscape"
    xmlns:sodipodi="http://sodipodi.sourceforge.net/DTD/sodipodi-0.dtd"
    xmlns="http://www.w3.org/2000/svg"
    xmlns:svg="http://www.w3.org/2000/svg"
  >
    <g transform="translate(-72.98057,-99.580777)">
      <g
        transform="matrix(0.74347917,0,0,0.74347917,63.987445,99.580772)"
        id="g6"
      >
        &#10;{" "}
        <path
          d="M 68.162,10.398 H 21.838 c -5.38,0 -9.742,4.362 -9.742,9.742 v 3.065 H 77.904 V 20.14 c 0,-5.38 -4.362,-9.742 -9.742,-9.742 z"
          strokeLinecap="round"
          id="path1"
        />
        &#10;{" "}
        <path
          d="M 57.628,14.469 H 32.373 c -1.104,0 -2,-0.896 -2,-2 C 30.373,5.593 35.966,0 42.841,0 h 4.318 c 6.875,0 12.469,5.593 12.469,12.469 0,1.104 -0.896,2 -2,2 z m -23.017,-4 H 55.39 C 54.488,6.761 51.141,4 47.159,4 h -4.318 c -3.981,0 -7.329,2.761 -8.23,6.469 z"
          strokeLinecap="round"
          id="path2"
        />
        &#10;{" "}
        <path
          d="m 16.154,27.346 3.555,60.704 c 0.064,1.095 0.97,1.95 2.067,1.95 h 46.449 c 1.097,0 2.003,-0.855 2.068,-1.949 L 73.847,27.347 H 16.154 Z"
          strokeLinecap="round"
          id="path3"
        />
        &#10;{" "}
        <path
          d="m 32.87,81.108 c -0.04,0.003 -0.079,0.004 -0.119,0.004 -1.051,0 -1.933,-0.82 -1.995,-1.883 L 28.481,40.373 c -0.064,-1.103 0.777,-2.049 1.88,-2.113 1.088,-0.066 2.049,0.777 2.113,1.88 l 2.275,38.855 c 0.065,1.103 -0.776,2.049 -1.879,2.113 z"
          strokeLinecap="round"
          id="path4"
        />
        &#10;{" "}
        <path
          d="m 47,79.112 c 0,1.104 -0.896,2 -2,2 -1.104,0 -2,-0.896 -2,-2 V 40.256 c 0,-1.104 0.896,-2 2,-2 1.104,0 2,0.896 2,2 z"
          strokeLinecap="round"
          id="path5"
        />
        &#10;{" "}
        <path
          d="m 59.244,79.229 c -0.063,1.063 -0.944,1.883 -1.995,1.883 -0.039,0 -0.079,-10e-4 -0.119,-0.003 -1.103,-0.065 -1.944,-1.012 -1.88,-2.114 L 57.525,40.14 c 0.063,-1.103 0.992,-1.947 2.113,-1.88 1.103,0.064 1.944,1.011 1.879,2.113 z"
          strokeLinecap="round"
          id="path6"
        />
        &#10;
      </g>
    </g>
  </svg>