<svg
   width="15.223037mm"
   height="19.115452mm"
   viewBox="0 0 15.223037 19.115452"
   version="1.1"

   xml:space="preserve"
   xmlns="http://www.w3.org/2000/svg"
   xmlns:svg="http://www.w3.org/2000/svg"><g
    
     id="layer1"
     transform="translate(-95.382052,-143.75363)"><path
       style="display:inline;fill:#3f3f46"
       d="m 108.28928,162.81331 c -0.0264,-0.0427 -0.25735,-0.22178 -0.51331,-0.39807 l -0.46539,-0.32052 -0.51626,0.2239 c -0.28394,0.12314 -0.53374,0.22389 -0.5551,0.22389 -0.0214,0 -0.076,-0.0976 -0.12131,-0.21689 -0.0705,-0.18548 -0.0385,-0.27438 0.22097,-0.61383 0.26146,-0.34203 0.2965,-0.44053 0.25328,-0.71202 -0.0653,-0.41007 0.32836,-1.45638 0.52021,-1.38276 0.0682,0.0262 0.21633,0.0708 0.32926,0.0991 0.19279,0.0484 0.20008,0.0377 0.11914,-0.1752 -0.13187,-0.34685 -0.10521,-0.40141 0.12306,-0.25184 0.20159,0.13209 0.23534,0.1229 0.9203,-0.25047 l 0.71104,-0.38759 0.34883,0.14659 c 0.39215,0.16479 0.39523,0.17212 0.23398,0.55805 -0.11415,0.2732 -0.10802,0.29035 0.29419,0.82278 0.22592,0.29907 0.41173,0.58411 0.41291,0.63344 0.003,0.1422 -1.92769,2.02413 -2.10662,2.05299 -0.0887,0.0143 -0.18282,-0.009 -0.20918,-0.0515 z m -6.76635,-0.12263 c -0.092,-0.0686 -0.17807,-0.3401 -0.24443,-0.77102 -0.071,-0.46124 -0.14278,-0.6784 -0.23402,-0.70829 -0.0724,-0.0237 -0.36346,-0.14806 -0.64687,-0.27636 l -0.515284,-0.23327 -0.54305,0.41024 c -0.29868,0.22563 -0.60223,0.41121 -0.67456,0.41239 -0.0723,0.001 -0.58231,-0.45429 -1.13329,-1.01215 -0.929526,-0.94111 -0.993333,-1.02644 -0.884497,-1.18279 0.06451,-0.0927 0.261297,-0.37409 0.437297,-0.62537 l 0.32,-0.45686 -0.20635,-0.49818 c -0.1135,-0.274 -0.22623,-0.56095 -0.25052,-0.63768 -0.0316,-0.0998 -0.220677,-0.16704 -0.663983,-0.23617 -0.340897,-0.0532 -0.676963,-0.12784 -0.746813,-0.16594 -0.103275,-0.0563 -0.131355,-0.32645 -0.150311,-1.44591 -0.01465,-0.86513 0.0095,-1.41613 0.06492,-1.48294 0.04853,-0.0585 0.318782,-0.1324 0.600559,-0.16428 0.790718,-0.0895 0.829858,-0.11825 1.098138,-0.80778 0.13326,-0.34251 0.21844,-0.66416 0.18928,-0.71478 -0.0292,-0.0506 -0.15509,-0.22538 -0.27986,-0.38836 -0.12477,-0.16299 -0.294826,-0.40205 -0.377896,-0.53125 l -0.151036,-0.23491 1.001432,-1.01392 c 0.55078,-0.55766 1.05202,-1.01392 1.11385,-1.01392 0.0618,0 0.36456,0.18416 0.67275,0.40926 l 0.56033,0.40925 0.644094,-0.27988 0.64408,-0.27989 0.10283,-0.61081 c 0.0566,-0.33594 0.12203,-0.66086 0.14551,-0.72204 0.033,-0.086 0.37792,-0.11123 1.51936,-0.11123 h 1.47667 l 0.0986,0.61384 c 0.0542,0.33761 0.11559,0.67098 0.13635,0.74083 0.0208,0.0699 0.31926,0.24492 0.66334,0.38904 l 0.6256,0.26203 0.55862,-0.4102 c 0.30724,-0.22561 0.60801,-0.4102 0.66837,-0.4102 0.19105,0 2.1142,2.00902 2.0416,2.13275 -0.0358,0.061 -0.22887,0.34283 -0.42905,0.62628 l -0.36397,0.51536 0.26183,0.62764 c 0.14401,0.3452 0.27247,0.63971 0.28548,0.65448 0.013,0.0148 0.30368,0.0674 0.64592,0.11688 0.34225,0.0495 0.66989,0.12782 0.7281,0.17402 0.0771,0.0612 0.10583,0.46988 0.10583,1.50725 0,1.28314 -0.0146,1.42737 -0.14816,1.46501 -0.0815,0.023 -0.42171,0.0857 -0.75604,0.13935 -0.56278,0.0904 -0.61439,0.11632 -0.69587,0.35006 l -0.088,0.25246 -0.39233,-0.22991 -0.39233,-0.22992 -0.73747,0.23568 -0.73748,0.23568 -0.65042,-0.35697 c -0.35772,-0.19633 -0.66823,-0.3858 -0.69001,-0.42104 -0.0218,-0.0353 0.039,-0.27003 0.13502,-0.52174 0.48834,-1.27981 -0.0499,-2.67218 -1.26341,-3.26807 -0.40125,-0.19704 -0.59219,-0.23729 -1.11882,-0.23583 -1.0582,0.003 -1.80952,0.46847 -2.28203,1.41406 -0.649174,1.2991 -0.0806,2.86916 1.26173,3.48415 0.55961,0.25639 1.50883,0.24571 2.07863,-0.0234 0.37392,-0.17659 0.76827,-0.24186 0.86669,-0.14345 0.0185,0.0185 -0.0126,0.33595 -0.0692,0.70542 -0.0948,0.61909 -0.0887,0.71356 0.0772,1.20481 0.099,0.29318 0.16507,0.55724 0.1468,0.5868 -0.0183,0.0296 -0.30053,0.18306 -0.62725,0.34112 l -0.59404,0.28738 0.42677,0.49067 0.42677,0.49067 -0.1,0.574 c -0.055,0.31571 -0.14491,0.6026 -0.19986,0.63754 -0.17749,0.11289 -2.63401,0.078 -2.79186,-0.0397 z m 3.80261,-1.0786 -0.24401,-0.15605 0.43004,-0.21792 c 0.51308,-0.25999 0.6243,-0.17092 0.30663,0.24557 -0.12452,0.16326 -0.23141,0.29405 -0.23752,0.29064 -0.006,-0.003 -0.12093,-0.0764 -0.25514,-0.16224 z m 0.34324,-1.76964 c -0.0313,-0.15644 -0.0569,-0.66067 -0.0569,-1.12051 0,-0.98135 0.0714,-1.03881 0.6621,-0.53315 0.29135,0.24938 0.3539,0.35574 0.3539,0.60172 0,0.23199 -0.0284,0.2873 -0.127,0.2474 -0.0699,-0.0283 -0.18013,-0.073 -0.24506,-0.0994 -0.0855,-0.0347 -0.1749,0.12253 -0.32412,0.57017 -0.20073,0.60218 -0.20751,0.6108 -0.26293,0.33372 z m 2.05978,-1.56782 c 0,-0.0548 1.03243,-0.38878 1.20177,-0.38878 0.24366,0 0.17797,0.12602 -0.14631,0.28066 -0.25953,0.12376 -1.05546,0.20529 -1.05546,0.10812 z m -9.059334,-9.65303 c 0,-0.14635 -0.0729,-0.25118 -0.23283,-0.33499 -0.20589,-0.10788 -0.25989,-0.10601 -0.46672,0.0162 -0.23107,0.13651 -0.23803,0.13401 -0.58056,-0.20852 -0.33848,-0.33848 -0.34341,-0.35168 -0.20837,-0.55778 0.19434,-0.2966 0.0616,-0.62249 -0.28444,-0.6985 -0.252646,-0.0555 -0.259079,-0.0691 -0.259079,-0.54759 0,-0.47808 0.0066,-0.49201 0.255399,-0.54177 0.34402,-0.0688 0.48407,-0.41299 0.28912,-0.71052 -0.13332,-0.20347 -0.12796,-0.21916 0.18426,-0.5389 0.35898,-0.36763 0.42174,-0.38709 0.63268,-0.19618 0.13385,0.12113 0.17078,0.12093 0.40884,-0.002 0.18754,-0.097 0.2617,-0.19585 0.2617,-0.34887 0,-0.20817 0.0133,-0.2129 0.52916,-0.18832 0.50003,0.0238 0.53058,0.0374 0.55485,0.2465 0.0382,0.32945 0.378184,0.45979 0.701344,0.26889 l 0.24874,-0.14693 0.35397,0.35397 c 0.34371,0.3437 0.34958,0.35882 0.20265,0.52119 -0.11003,0.12158 -0.13593,0.23735 -0.0949,0.42421 0.046,0.20917 0.11046,0.26714 0.34665,0.31145 l 0.29019,0.0544 v 0.49474 0.49474 l -0.29147,0.0547 c -0.2357,0.0442 -0.30203,0.10274 -0.34665,0.30586 -0.0396,0.18045 -0.0126,0.29825 0.0962,0.41839 0.14695,0.16237 0.141,0.17752 -0.20542,0.52348 -0.35039,0.34991 -0.3609,0.35388 -0.59003,0.22293 -0.32474,-0.1856 -0.674894,-0.0651 -0.710664,0.24452 -0.025,0.21663 -0.0515,0.22868 -0.55544,0.25268 -0.51556,0.0246 -0.52916,0.0197 -0.52916,-0.18779 z m 1.12608,-1.70625 c 0.293544,-0.29354 0.358214,-0.63549 0.18803,-0.99413 -0.20482,-0.43161 -0.80564,-0.62351 -1.23414,-0.39419 -0.2186,0.11699 -0.41864,0.52147 -0.41864,0.84647 0,0.66796 0.97716,1.02944 1.46475,0.54185 z m 6.070584,1.6239 c 0,-0.15602 -0.24817,-0.2463 -0.37888,-0.13782 -0.15129,0.12556 -0.41439,-0.18965 -0.34384,-0.41194 0.0383,-0.1208 0.003,-0.20407 -0.11937,-0.28043 -0.23725,-0.14816 -0.23501,-0.54014 0.003,-0.6025 0.14778,-0.0386 0.16805,-0.0887 0.12157,-0.30032 -0.0646,-0.29415 0.13581,-0.4605 0.45441,-0.37719 0.14341,0.0375 0.19922,0.006 0.23523,-0.13135 0.0662,-0.25329 0.49653,-0.25383 0.56273,-7e-4 0.037,0.14146 0.0907,0.16884 0.25199,0.12837 0.26579,-0.0667 0.49634,0.17183 0.42601,0.44078 -0.0388,0.14827 -0.009,0.2032 0.13021,0.23958 0.13159,0.0344 0.18051,0.11337 0.18051,0.29133 0,0.15222 -0.0444,0.24413 -0.11794,0.24413 -0.14405,0 -0.23334,0.20728 -0.16546,0.38415 0.0699,0.18221 -0.21821,0.48855 -0.35372,0.37609 -0.1307,-0.10848 -0.37888,-0.0182 -0.37888,0.13782 0,0.0746 -0.0933,0.11794 -0.254,0.11794 -0.16066,0 -0.254,-0.0433 -0.254,-0.11794 z m 0.57574,-0.83033 c 0.2285,-0.2285 5.3e-4,-0.74507 -0.32881,-0.74507 -0.33658,0 -0.5513,0.50843 -0.31466,0.74507 0.13097,0.13097 0.51249,0.13097 0.64347,0 z"
        /></g></svg>