  <svg
    width="204.75858mm"
    height="144.12483mm"
    viewBox="0 0 204.75858 144.12483"
    version="1.1"
    id="svg1"
    xml:space="preserve"
    xmlns="http://www.w3.org/2000/svg"
  >
    <g transform="translate(-4.0465938,-56.565089)">
      <path
        style="fill: #ffffff, strokeWidth: 0.858091"
        d="m 15.933748,200.51647 c -0.674105,-0.11092 -1.931733,-0.49395 -2.79473,-0.85118 C 4.8364774,196.2285 1.5516904,186.5553 6.1068173,178.95654 c 0.9737034,-1.62432 3.3900421,-4.00493 5.0387217,-4.96424 0.707364,-0.41159 2.041068,-1.02005 2.963785,-1.35212 l 1.677669,-0.60376 89.955817,-0.058 c 100.2998,-0.0648 91.54271,-0.20818 95.16453,1.55946 3.34451,1.63229 5.95024,4.60676 7.30496,8.33867 0.52846,1.45575 0.59911,1.9888 0.59247,4.46977 -0.006,2.44355 -0.0861,3.03599 -0.60005,4.46984 -1.60403,4.47481 -4.87011,7.66188 -9.54541,9.31449 l -1.48676,0.52554 -90.00658,0.031 c -52.053958,0.0179 -90.523389,-0.0541 -91.232222,-0.17067 z m 0,-57.69018 c -0.674105,-0.11091 -1.931733,-0.49394 -2.79473,-0.85117 -8.3025406,-3.4368 -11.5873276,-13.10999 -7.0322007,-20.70875 0.9737034,-1.62432 3.3900421,-4.00492 5.0387217,-4.96424 0.707364,-0.41159 2.041068,-1.02004 2.963785,-1.35212 l 1.677669,-0.60376 89.955817,-0.058 c 100.2998,-0.0648 91.54271,-0.20819 95.16453,1.55945 3.34451,1.6323 5.95024,4.60677 7.30496,8.33868 0.52846,1.45575 0.59911,1.9888 0.59247,4.46977 -0.006,2.44355 -0.0861,3.03599 -0.60005,4.46984 -1.60403,4.47481 -4.87011,7.66187 -9.54541,9.31448 l -1.48676,0.52554 -90.00658,0.031 c -52.053958,0.0179 -90.523389,-0.0541 -91.232222,-0.17072 z m 0,-57.690173 C 15.259643,85.025205 14.002015,84.642176 13.139018,84.284946 4.8364774,80.84815 1.5516904,71.174954 6.1068173,63.576196 c 0.9737034,-1.624309 3.3900421,-4.004931 5.0387217,-4.964238 0.707364,-0.411596 2.041068,-1.020042 2.963785,-1.352113 l 1.677669,-0.603771 89.955817,-0.058 c 100.2998,-0.06473 91.54271,-0.208195 95.16453,1.55945 3.34451,1.632296 5.95024,4.606759 7.30496,8.338669 0.52846,1.455752 0.59911,1.988803 0.59247,4.469768 -0.006,2.443557 -0.0861,3.035991 -0.60005,4.469845 -1.60403,4.47481 -4.87011,7.661872 -9.54541,9.314491 l -1.48676,0.525531 -90.00658,0.031 c -52.053958,0.01789 -90.523389,-0.05409 -91.232222,-0.170677 z"
      />
    </g>
  </svg>